<svg xmlns="http://www.w3.org/2000/svg" xml:space="preserve" style="fill-rule:evenodd;clip-rule:evenodd;stroke-linejoin:round;stroke-miterlimit:2" viewBox="0 0 294 167"><path d="m1329.92 845.739-15.21-79.295 11-44.015 42.02 12.004 24.73 47.624 4.6 18.39 3.81-27.812 7.02-17.606 16.99 17.606 9.12 50.815 2.44-1.895 3.71-40.978 16.61-41.542 19.4 41.542v72.372l55.96-80.314-21.94 85.062 53.15-32.244-51.22 52.88-23.21 10.862-12.74-10.862-19.4-6.402-2.52-.5-39.28.5-22.5 17.264h-33.77l-23.75-17.264h-26.83l-38.41-140.899 60.22 114.707Z" style="fill:#f5cce1" transform="translate(-1269.694 -722.43)"/><path d="m1314.71 766.444 20.23 105.487 23.75 17.264-15.45-111.309-28.53-11.442Z" style="fill:url(#a)" transform="translate(-1269.694 -722.43)"/><path d="m1343.24 777.886 29.28-2.285 19.94 113.594h-33.77l-15.45-111.309Z" style="fill:url(#b)" transform="translate(-1269.694 -722.43)"/><path d="m1372.52 775.601-4.67-40.942 24.61 47.398 24.05 89.854-24.05 17.284-19.94-113.594Z" style="fill:url(#c)" transform="translate(-1269.694 -722.43)"/><path d="m1269.7 731.032 50.97 125.798-12.56 15.101-38.41-140.899Z" style="fill:url(#d)" transform="translate(-1269.694 -722.43)"/><path d="m1431.17 871.931 8.98-91.354 18.84 16.345-2.23 75.009h-25.59Z" style="fill:url(#e)" transform="translate(-1269.694 -722.43)"/><path d="m1476.16 878.333 12.74 10.862 74.43-63.742-87.17 52.88Z" style="fill:#eb70ba" transform="translate(-1269.694 -722.43)"/><path d="m1400.87 772.635 15.64 10.227 8.68 89.069h-8.68l-19.45-71.484 3.81-27.812Z" style="fill:url(#f)" transform="translate(-1269.694 -722.43)"/><path d="m1532.12 772.635-55.96 105.698 34.63-21.009 21.33-84.689Z" style="fill:url(#g)" transform="translate(-1269.694 -722.43)"/><path d="m1456.76 871.931 19.4 6.402 55.96-105.698-55.96 80.314-19.4 18.982Z" style="fill:#7d2793" transform="translate(-1269.694 -722.43)"/><defs><linearGradient id="a" x1="0" x2="1" y1="0" y2="0" gradientTransform="rotate(-142.464 822.797 198.567) scale(74.5112)" gradientUnits="userSpaceOnUse"><stop offset="0" style="stop-color:#eb70ba;stop-opacity:1"/><stop offset="1" style="stop-color:#eb70ba;stop-opacity:0"/></linearGradient><linearGradient id="b" x1="0" x2="1" y1="0" y2="0" gradientTransform="rotate(-120.774 948.28 49.245) scale(121.5201)" gradientUnits="userSpaceOnUse"><stop offset="0" style="stop-color:#7d2793;stop-opacity:1"/><stop offset="1" style="stop-color:#7d2793;stop-opacity:0"/></linearGradient><linearGradient id="c" x1="0" x2="1" y1="0" y2="0" gradientTransform="rotate(15.901 -1980.45 5269.16) scale(140.395)" gradientUnits="userSpaceOnUse"><stop offset="0" style="stop-color:#eb70ba;stop-opacity:1"/><stop offset="1" style="stop-color:#eb70ba;stop-opacity:0"/></linearGradient><linearGradient id="d" x1="0" x2="1" y1="0" y2="0" gradientTransform="scale(-112.7316) rotate(47.728 2.831 -17.013)" gradientUnits="userSpaceOnUse"><stop offset="0" style="stop-color:#301f73;stop-opacity:1"/><stop offset="1" style="stop-color:#301f73;stop-opacity:0"/></linearGradient><linearGradient id="e" x1="0" x2="1" y1="0" y2="0" gradientTransform="rotate(-100.302 1092.244 -171.952) scale(92.8508)" gradientUnits="userSpaceOnUse"><stop offset="0" style="stop-color:#7d2793;stop-opacity:1"/><stop offset="1" style="stop-color:#e13a90;stop-opacity:1"/></linearGradient><linearGradient id="f" x1="0" x2="1" y1="0" y2="0" gradientTransform="rotate(-84.162 1179.913 -346.24) scale(119.704)" gradientUnits="userSpaceOnUse"><stop offset="0" style="stop-color:#301f73;stop-opacity:1"/><stop offset="1" style="stop-color:#301f73;stop-opacity:0"/></linearGradient><linearGradient id="g" x1="0" x2="1" y1="0" y2="0" gradientTransform="rotate(-13.436 4449.137 -5914.276) scale(66.6347)" gradientUnits="userSpaceOnUse"><stop offset="0" style="stop-color:#301f73;stop-opacity:1"/><stop offset="1" style="stop-color:#301f73;stop-opacity:0"/></linearGradient></defs></svg>