<svg xmlns="http://www.w3.org/2000/svg" xml:space="preserve" style="fill-rule:evenodd;clip-rule:evenodd;stroke-linejoin:round;stroke-miterlimit:2" viewBox="0 0 456 558"><path d="m179.568 953.325-49.861-246.957-64.239-48.453-28.134 124.142v338.423l142.234-167.155Z" style="fill:#f5cce1" transform="translate(60.498 -657.915)"/><path d="M37.334 782.057h39.598l5.733 285.143-45.331 53.28V782.057Z" style="fill:url(#a)" transform="translate(60.498 -657.915)"/><path d="m76.932 782.057 31.519-44.193 41.014 250.837-66.8 78.499-5.733-285.143Z" style="fill:url(#b)" transform="translate(60.498 -657.915)"/><path d="m108.451 737.864 21.256-31.496 49.861 244.899-30.103 37.434-41.014-250.837Z" style="fill:url(#c)" transform="translate(60.498 -657.915)"/><path d="m65.468 657.915 11.464 124.142H37.334l28.134-124.142Z" style="fill:#7d2793" transform="translate(60.498 -657.915)"/><path d="m70.337 1033.97 24.96-251.913-154.348 408.333 129.388-38.91v-117.51Z" style="fill:#f5cce1" transform="translate(59.05 -657.915)"/><path d="m0 1146.3 136.326-217.71 123.087-56.659v88.98L161.725 1215H0v-68.7Z" style="fill:#f5cce1" transform="translate(59.05 -657.915)"/><path d="M259.413 871.931 162.867 1067.2l-26.541-138.61 123.087-56.659Z" style="fill:#eb70ba" transform="translate(59.05 -657.915)"/><path d="M162.867 1067.2 101.772 1215H0v-68.7l136.326-217.71 26.541 138.61Z" style="fill:url(#d)" transform="translate(59.05 -657.915)"/><path d="m162.867 1067.2 96.546-106.289-61.543 160.079-96.098 94.01 61.095-147.8Z" style="fill:url(#e)" transform="translate(59.05 -657.915)"/><path d="m95.297 1215 164.116-171.54 115.273-17.51 15.63 101.92-42.983 87.13H95.297Z" style="fill:#f5cce1" transform="translate(65.526 -657.915)"/><path d="m28.059 1101.49 1.723-63.61 51.651-202.152-82.834 202.152L0 1146.3l28.059-44.81Z" style="fill:url(#f)" transform="translate(59.05 -657.915)"/><path d="m259.413 1043.46 29.443 77.02 85.83-94.53-115.273 17.51Z" style="fill:url(#g)" transform="translate(65.526 -657.915)"/><path d="M288.856 1120.48 226.335 1215H95.297l164.116-171.54 29.443 77.02Z" style="fill:url(#h)" transform="translate(65.526 -659.274)"/><path d="M390.316 1127.87 347.333 1215H226.335l62.521-94.52 101.46 7.39Z" style="fill:#f5cce1" transform="translate(65.526 -657.915)"/><path d="m288.856 1120.48 101.46 7.39-15.63-101.92-85.83 94.53Z" style="fill:url(#i)" transform="translate(65.526 -657.915)"/><defs><linearGradient id="a" x1="0" x2="1" y1="0" y2="0" gradientTransform="rotate(-114.708 392.841 436.191) scale(113.8555)" gradientUnits="userSpaceOnUse"><stop offset="0" style="stop-color:#eb70ba;stop-opacity:1"/><stop offset="1" style="stop-color:#eb70ba;stop-opacity:0"/></linearGradient><linearGradient id="b" x1="0" x2="1" y1="0" y2="0" gradientTransform="rotate(81.058 -416.237 446.629) scale(205.3984)" gradientUnits="userSpaceOnUse"><stop offset="0" style="stop-color:#301f73;stop-opacity:1"/><stop offset=".5" style="stop-color:#7d2793;stop-opacity:1"/><stop offset="1" style="stop-color:#eb70ba;stop-opacity:1"/></linearGradient><linearGradient id="c" x1="0" x2="1" y1="0" y2="0" gradientTransform="scale(-112.58463) rotate(85.343 3.533 -4.589)" gradientUnits="userSpaceOnUse"><stop offset="0" style="stop-color:#eb70ba;stop-opacity:1"/><stop offset="1" style="stop-color:#eb70ba;stop-opacity:0"/></linearGradient><linearGradient id="d" x1="0" x2="1" y1="0" y2="0" gradientTransform="scale(-149.6958) rotate(85.749 3.985 -4.245)" gradientUnits="userSpaceOnUse"><stop offset="0" style="stop-color:#eb70ba;stop-opacity:1"/><stop offset="1" style="stop-color:#eb70ba;stop-opacity:0"/></linearGradient><linearGradient id="e" x1="0" x2="1" y1="0" y2="0" gradientTransform="scale(161.4999) rotate(81.594 -3.341 3.696)" gradientUnits="userSpaceOnUse"><stop offset="0" style="stop-color:#eb70ba;stop-opacity:1"/><stop offset=".5" style="stop-color:#7d2793;stop-opacity:1"/><stop offset="1" style="stop-color:#301f73;stop-opacity:1"/></linearGradient><linearGradient id="f" x1="0" x2="1" y1="0" y2="0" gradientTransform="rotate(-54.537 1090.022 598.097) scale(249.044)" gradientUnits="userSpaceOnUse"><stop offset="0" style="stop-color:#7d2793;stop-opacity:1"/><stop offset="1" style="stop-color:#7d2793;stop-opacity:0"/></linearGradient><linearGradient id="g" x1="0" x2="1" y1="0" y2="0" gradientTransform="scale(108.5054) rotate(-17.205 34.863 -2.808)" gradientUnits="userSpaceOnUse"><stop offset="0" style="stop-color:#7d2793;stop-opacity:1"/><stop offset="1" style="stop-color:#7d2793;stop-opacity:0"/></linearGradient><linearGradient id="h" x1="0" x2="1" y1="0" y2="0" gradientTransform="rotate(49.899 -1099.138 732.715) scale(172.552)" gradientUnits="userSpaceOnUse"><stop offset="0" style="stop-color:#eb70ba;stop-opacity:1"/><stop offset="1" style="stop-color:#eb70ba;stop-opacity:0"/></linearGradient><linearGradient id="i" x1="0" x2="1" y1="0" y2="0" gradientTransform="rotate(-104.032 673.686 441.843) scale(195.4783)" gradientUnits="userSpaceOnUse"><stop offset="0" style="stop-color:#301f73;stop-opacity:1"/><stop offset=".5" style="stop-color:#e13a90;stop-opacity:1"/><stop offset="1" style="stop-color:#f5cce1;stop-opacity:1"/></linearGradient></defs></svg>