<svg xmlns="http://www.w3.org/2000/svg" xml:space="preserve" style="fill-rule:evenodd;clip-rule:evenodd;stroke-linejoin:round;stroke-miterlimit:2" viewBox="0 0 257 306"><path d="m349.55 871.931 30.01 26.599 57.018-9.335L478.592 675l-14.004-72.568L408.569 675 349.55 871.931Z" style="fill:#f5cce1" transform="translate(-243.445 -602.432)"/><path d="m379.56 898.53 65.337-234.861L408.569 675 349.55 871.931l30.01 26.599Z" style="fill:url(#a)" transform="translate(-243.445 -602.432)"/><path d="M444.897 663.669 478.592 675l-42.014 214.195-57.018 9.335 65.337-234.861Z" style="fill:url(#b)" transform="translate(-243.445 -602.432)"/><path d="m444.897 663.669 19.691-61.237L408.569 675l36.328-11.331Z" style="fill:#7d2793" transform="translate(-243.445 -602.432)"/><path d="m414.071 889.195 55.848-80.148 29.61-19.527-41.614 109.01-29.61 9.428-14.234-18.763ZM356.773 878.333l-24.499 10.862-88.829-63.711 113.328 22.345v30.504" style="fill:#f5cce1" transform="translate(-243.445 -602.432)"/><path d="m469.919 809.047-41.614 98.911-14.234-18.763 55.848-80.148Z" style="fill:url(#c)" transform="translate(-243.445 -602.432)"/><path d="m243.445 825.484 113.328 52.849-24.499 10.862-88.829-63.711Z" style="fill:url(#d)" transform="translate(-243.445 -602.432)"/><defs><linearGradient id="a" x1="0" x2="1" y1="0" y2="0" gradientTransform="rotate(-145.685 325.258 380.224) scale(81.879)" gradientUnits="userSpaceOnUse"><stop offset="0" style="stop-color:#eb70ba;stop-opacity:1"/><stop offset="1" style="stop-color:#eb70ba;stop-opacity:0"/></linearGradient><linearGradient id="b" x1="0" x2="1" y1="0" y2="0" gradientTransform="rotate(-62.538 929.596 136.75) scale(163.2216)" gradientUnits="userSpaceOnUse"><stop offset="0" style="stop-color:#eb70ba;stop-opacity:1"/><stop offset="1" style="stop-color:#eb70ba;stop-opacity:0"/></linearGradient><linearGradient id="c" x1="0" x2="1" y1="0" y2="0" gradientTransform="rotate(-52.757 1112.918 31.806) scale(141.208)" gradientUnits="userSpaceOnUse"><stop offset="0" style="stop-color:#301f73;stop-opacity:1"/><stop offset="1" style="stop-color:#301f73;stop-opacity:0"/></linearGradient><linearGradient id="d" x1="0" x2="1" y1="0" y2="0" gradientTransform="rotate(103.216 -183.975 540.46) scale(37.19843)" gradientUnits="userSpaceOnUse"><stop offset="0" style="stop-color:#7d2793;stop-opacity:1"/><stop offset="1" style="stop-color:#7d2793;stop-opacity:0"/></linearGradient></defs></svg>