<?xml version="1.0" encoding="UTF-8" standalone="no"?>
<!DOCTYPE svg PUBLIC "-//W3C//DTD SVG 1.1//EN" "http://www.w3.org/Graphics/SVG/1.1/DTD/svg11.dtd">
<svg width="100%" height="100%" viewBox="0 0 257 306" version="1.1" xmlns="http://www.w3.org/2000/svg" xmlns:xlink="http://www.w3.org/1999/xlink" xml:space="preserve" xmlns:serif="http://www.serif.com/" style="fill-rule:evenodd;clip-rule:evenodd;stroke-linejoin:round;stroke-miterlimit:2;">
    <g transform="matrix(1,0,0,1,-243.445,-602.432)">
        <g transform="matrix(1,0,0,1,0,135)">
            <g transform="matrix(1,0,0,1,0,-135)">
                <path d="M349.55,871.931L379.56,898.53L436.578,889.195L478.592,675L464.588,602.432L408.569,675L349.55,871.931Z" style="fill:rgb(245,204,225);"/>
            </g>
        </g>
        <g transform="matrix(1,0,0,1,0,135)">
            <g transform="matrix(1,0,0,1,0,-135)">
                <path d="M379.56,898.53L444.897,663.669L408.569,675L349.55,871.931L379.56,898.53Z" style="fill:url(#_Linear1);"/>
            </g>
        </g>
        <g transform="matrix(1,0,0,1,0,135)">
            <g transform="matrix(1,0,0,1,0,-135)">
                <path d="M444.897,663.669L478.592,675L436.578,889.195L379.56,898.53L444.897,663.669Z" style="fill:url(#_Linear2);"/>
            </g>
        </g>
        <g transform="matrix(1,0,0,1,0,135)">
            <g transform="matrix(1,0,0,1,0,-135)">
                <path d="M444.897,663.669L464.588,602.432L408.569,675L444.897,663.669Z" style="fill:rgb(125,39,147);"/>
            </g>
        </g>
        <g transform="matrix(1,0,0,1,0,135)">
            <g transform="matrix(1,0,0,1,0,-135)">
                <path d="M414.071,889.195L469.919,809.047L499.529,789.52L457.915,898.53L428.305,907.958L414.071,889.195Z" style="fill:rgb(245,204,225);"/>
            </g>
        </g>
        <g transform="matrix(1,0,0,1,0,135)">
            <g transform="matrix(1,0,0,1,0,-135)">
                <path d="M356.773,878.333L332.274,889.195L243.445,825.484L356.773,847.829L356.773,878.333" style="fill:rgb(245,204,225);"/>
            </g>
        </g>
        <g transform="matrix(1,0,0,1,0,135)">
            <g transform="matrix(1,0,0,1,0,-135)">
                <path d="M469.919,809.047L428.305,907.958L414.071,889.195L469.919,809.047Z" style="fill:url(#_Linear3);"/>
            </g>
        </g>
        <g transform="matrix(1,0,0,1,0,135)">
            <g transform="matrix(1,0,0,1,0,-135)">
                <path d="M243.445,825.484L356.773,878.333L332.274,889.195L243.445,825.484Z" style="fill:url(#_Linear4);"/>
            </g>
        </g>
    </g>
    <defs>
        <linearGradient id="_Linear1" x1="0" y1="0" x2="1" y2="0" gradientUnits="userSpaceOnUse" gradientTransform="matrix(-67.6284,-46.1581,46.1581,-67.6284,379.56,877.632)"><stop offset="0" style="stop-color:rgb(235,112,186);stop-opacity:1"/><stop offset="1" style="stop-color:rgb(235,112,186);stop-opacity:0"/></linearGradient>
        <linearGradient id="_Linear2" x1="0" y1="0" x2="1" y2="0" gradientUnits="userSpaceOnUse" gradientTransform="matrix(75.2719,-144.829,144.829,75.2719,379.56,898.53)"><stop offset="0" style="stop-color:rgb(235,112,186);stop-opacity:1"/><stop offset="1" style="stop-color:rgb(235,112,186);stop-opacity:0"/></linearGradient>
        <linearGradient id="_Linear3" x1="0" y1="0" x2="1" y2="0" gradientUnits="userSpaceOnUse" gradientTransform="matrix(85.4577,-112.413,112.413,85.4577,414.071,898.53)"><stop offset="0" style="stop-color:rgb(48,31,115);stop-opacity:1"/><stop offset="1" style="stop-color:rgb(48,31,115);stop-opacity:0"/></linearGradient>
        <linearGradient id="_Linear4" x1="0" y1="0" x2="1" y2="0" gradientUnits="userSpaceOnUse" gradientTransform="matrix(-8.50454,36.2132,-36.2132,-8.50454,300.109,843.125)"><stop offset="0" style="stop-color:rgb(125,39,147);stop-opacity:1"/><stop offset="1" style="stop-color:rgb(125,39,147);stop-opacity:0"/></linearGradient>
    </defs>
</svg>
