<?xml version="1.0" encoding="UTF-8" standalone="no"?>
<!DOCTYPE svg PUBLIC "-//W3C//DTD SVG 1.1//EN" "http://www.w3.org/Graphics/SVG/1.1/DTD/svg11.dtd">
<svg width="100%" height="100%" viewBox="0 0 456 558" version="1.1" xmlns="http://www.w3.org/2000/svg" xmlns:xlink="http://www.w3.org/1999/xlink" xml:space="preserve" xmlns:serif="http://www.serif.com/" style="fill-rule:evenodd;clip-rule:evenodd;stroke-linejoin:round;stroke-miterlimit:2;">
    <g transform="matrix(1,0,0,1,60.4975,-657.915)">
        <g transform="matrix(1,0,0,1,0,135)">
            <g transform="matrix(1,0,0,1,0,-135)">
                <path d="M179.568,953.325L129.707,706.368L65.468,657.915L37.334,782.057L37.334,1120.48L179.568,953.325Z" style="fill:rgb(245,204,225);"/>
            </g>
        </g>
        <g transform="matrix(1,0,0,1,0,135)">
            <g transform="matrix(1,0,0,1,0,-135)">
                <path d="M37.334,782.057L76.932,782.057L82.665,1067.2L37.334,1120.48L37.334,782.057Z" style="fill:url(#_Linear1);"/>
            </g>
        </g>
        <g transform="matrix(1,0,0,1,0,135)">
            <g transform="matrix(1,0,0,1,0,-135)">
                <path d="M76.932,782.057L108.451,737.864L149.465,988.701L82.665,1067.2L76.932,782.057Z" style="fill:url(#_Linear2);"/>
            </g>
        </g>
        <g transform="matrix(1,0,0,1,0,135)">
            <g transform="matrix(1,0,0,1,0,-135)">
                <path d="M108.451,737.864L129.707,706.368L179.568,951.267L149.465,988.701L108.451,737.864Z" style="fill:url(#_Linear3);"/>
            </g>
        </g>
        <g transform="matrix(1,0,0,1,0,135)">
            <g transform="matrix(1,0,0,1,0,-135)">
                <path d="M65.468,657.915L76.932,782.057L37.334,782.057L65.468,657.915Z" style="fill:rgb(125,39,147);"/>
            </g>
        </g>
        <g transform="matrix(1,0,0,1,0,135)">
            <g transform="matrix(1,0,0,1,-1.44696,-135)">
                <path d="M70.337,1033.97L95.297,782.057L-59.051,1190.39L70.337,1151.48L70.337,1033.97Z" style="fill:rgb(245,204,225);"/>
            </g>
        </g>
        <g transform="matrix(1,0,0,1,0,135)">
            <g transform="matrix(1,0,0,1,-1.44696,-135)">
                <path d="M0,1146.3L136.326,928.59L259.413,871.931L259.413,960.911L161.725,1215L0,1215L0,1146.3Z" style="fill:rgb(245,204,225);"/>
            </g>
        </g>
        <g transform="matrix(1,0,0,1,0,135)">
            <g transform="matrix(1,0,0,1,-1.44696,-135)">
                <path d="M259.413,871.931L162.867,1067.2L136.326,928.59L259.413,871.931Z" style="fill:rgb(235,112,186);"/>
            </g>
        </g>
        <g transform="matrix(1,0,0,1,0,135)">
            <g transform="matrix(1,0,0,1,-1.44696,-135)">
                <path d="M162.867,1067.2L101.772,1215L0,1215L0,1146.3L136.326,928.59L162.867,1067.2Z" style="fill:url(#_Linear4);"/>
            </g>
        </g>
        <g transform="matrix(1,0,0,1,0,135)">
            <g transform="matrix(1,0,0,1,-1.44696,-135)">
                <path d="M162.867,1067.2L259.413,960.911L197.87,1120.99L101.772,1215L162.867,1067.2Z" style="fill:url(#_Linear5);"/>
            </g>
        </g>
        <g transform="matrix(1,0,0,1,0,135)">
            <g transform="matrix(1,0,0,1,5.02804,-135)">
                <path d="M95.297,1215L259.413,1043.46L374.686,1025.95L390.316,1127.87L347.333,1215L95.297,1215Z" style="fill:rgb(245,204,225);"/>
            </g>
        </g>
        <g transform="matrix(1,0,0,1,0,135)">
            <g transform="matrix(1,0,0,1,-1.44696,-135)">
                <path d="M28.059,1101.49L29.782,1037.88L81.433,835.728L-1.401,1037.88L0,1146.3L28.059,1101.49Z" style="fill:url(#_Linear6);"/>
            </g>
        </g>
        <g transform="matrix(1,0,0,1,0,135)">
            <g transform="matrix(1,0,0,1,5.02804,-135)">
                <path d="M259.413,1043.46L288.856,1120.48L374.686,1025.95L259.413,1043.46Z" style="fill:url(#_Linear7);"/>
            </g>
        </g>
        <g transform="matrix(1,0,0,1,0,135)">
            <g transform="matrix(1,0,0,1,5.02804,-136.359)">
                <path d="M288.856,1120.48L226.335,1215L95.297,1215L259.413,1043.46L288.856,1120.48Z" style="fill:url(#_Linear8);"/>
            </g>
        </g>
        <g transform="matrix(1,0,0,1,0,135)">
            <g transform="matrix(1,0,0,1,5.02804,-135)">
                <path d="M390.316,1127.87L347.333,1215L226.335,1215L288.856,1120.48L390.316,1127.87Z" style="fill:rgb(245,204,225);"/>
            </g>
        </g>
        <g transform="matrix(1,0,0,1,0,135)">
            <g transform="matrix(1,0,0,1,5.02804,-135)">
                <path d="M288.856,1120.48L390.316,1127.87L374.686,1025.95L288.856,1120.48Z" style="fill:url(#_Linear9);"/>
            </g>
        </g>
    </g>
    <defs>
        <linearGradient id="_Linear1" x1="0" y1="0" x2="1" y2="0" gradientUnits="userSpaceOnUse" gradientTransform="matrix(-47.5909,-103.432,103.432,-47.5909,160.789,975.393)"><stop offset="0" style="stop-color:rgb(235,112,186);stop-opacity:1"/><stop offset="1" style="stop-color:rgb(235,112,186);stop-opacity:0"/></linearGradient>
        <linearGradient id="_Linear2" x1="0" y1="0" x2="1" y2="0" gradientUnits="userSpaceOnUse" gradientTransform="matrix(31.9261,202.902,-202.902,31.9261,89.6611,788.385)"><stop offset="0" style="stop-color:rgb(48,31,115);stop-opacity:1"/><stop offset="0.5" style="stop-color:rgb(125,39,147);stop-opacity:1"/><stop offset="1" style="stop-color:rgb(235,112,186);stop-opacity:1"/></linearGradient>
        <linearGradient id="_Linear3" x1="0" y1="0" x2="1" y2="0" gradientUnits="userSpaceOnUse" gradientTransform="matrix(-9.14015,-112.213,112.213,-9.14015,149.465,871.171)"><stop offset="0" style="stop-color:rgb(235,112,186);stop-opacity:1"/><stop offset="1" style="stop-color:rgb(235,112,186);stop-opacity:0"/></linearGradient>
        <linearGradient id="_Linear4" x1="0" y1="0" x2="1" y2="0" gradientUnits="userSpaceOnUse" gradientTransform="matrix(-11.0963,-149.284,149.284,-11.0963,81.4334,1183.26)"><stop offset="0" style="stop-color:rgb(235,112,186);stop-opacity:1"/><stop offset="1" style="stop-color:rgb(235,112,186);stop-opacity:0"/></linearGradient>
        <linearGradient id="_Linear5" x1="0" y1="0" x2="1" y2="0" gradientUnits="userSpaceOnUse" gradientTransform="matrix(23.6083,159.765,-159.765,23.6083,129.707,1043.47)"><stop offset="0" style="stop-color:rgb(235,112,186);stop-opacity:1"/><stop offset="0.5" style="stop-color:rgb(125,39,147);stop-opacity:1"/><stop offset="1" style="stop-color:rgb(48,31,115);stop-opacity:1"/></linearGradient>
        <linearGradient id="_Linear6" x1="0" y1="0" x2="1" y2="0" gradientUnits="userSpaceOnUse" gradientTransform="matrix(144.491,-202.843,202.843,144.491,-29.5321,1138.9)"><stop offset="0" style="stop-color:rgb(125,39,147);stop-opacity:1"/><stop offset="1" style="stop-color:rgb(125,39,147);stop-opacity:0"/></linearGradient>
        <linearGradient id="_Linear7" x1="0" y1="0" x2="1" y2="0" gradientUnits="userSpaceOnUse" gradientTransform="matrix(103.65,-32.0953,32.0953,103.65,259.413,1105.31)"><stop offset="0" style="stop-color:rgb(125,39,147);stop-opacity:1"/><stop offset="1" style="stop-color:rgb(125,39,147);stop-opacity:0"/></linearGradient>
        <linearGradient id="_Linear8" x1="0" y1="0" x2="1" y2="0" gradientUnits="userSpaceOnUse" gradientTransform="matrix(111.147,131.987,-131.987,111.147,169.319,1101.49)"><stop offset="0" style="stop-color:rgb(235,112,186);stop-opacity:1"/><stop offset="1" style="stop-color:rgb(235,112,186);stop-opacity:0"/></linearGradient>
        <linearGradient id="_Linear9" x1="0" y1="0" x2="1" y2="0" gradientUnits="userSpaceOnUse" gradientTransform="matrix(-47.3977,-189.645,189.645,-47.3977,408.377,1202.56)"><stop offset="0" style="stop-color:rgb(48,31,115);stop-opacity:1"/><stop offset="0.5" style="stop-color:rgb(225,58,144);stop-opacity:1"/><stop offset="1" style="stop-color:rgb(245,204,225);stop-opacity:1"/></linearGradient>
    </defs>
</svg>
